<svg xmlns="http://www.w3.org/2000/svg" id="canvas" viewBox="283.201 317.345 1111.236 294.665"><path d="M 360.78,355.72 C 359.73 356.79, 359.39 358.01, 357.99 361.90 C 356.60 365.80, 356.15 368.25, 353.80 375.20 C 351.46 382.14, 350.00 386.78, 346.26 396.64 C 342.52 406.49, 340.07 412.65, 335.12 424.47 C 330.17 436.28, 327.06 443.34, 321.52 455.69 C 315.98 468.04, 312.43 474.98, 307.43 486.22 C 302.43 497.46, 300.26 503.01, 296.53 511.89 C 292.80 520.77, 290.84 524.72, 288.78 530.61 C 286.71 536.49, 286.32 538.57, 286.21 541.31 C 286.09 544.06, 287.17 543.90, 288.22 544.35 C 289.27 544.81, 290.54 544.26, 291.46 543.58 C 292.38 542.90, 293.27 541.78, 292.82 540.94 C 292.37 540.10, 290.06 539.25, 289.19 539.38 C 288.32 539.50, 288.58 540.75, 288.48 541.56 C 288.38 542.37, 288.44 543.40, 288.71 543.44 C 288.97 543.48, 289.30 544.16, 289.81 541.75 C 290.32 539.34, 289.55 537.23, 291.26 531.41 C 292.97 525.59, 294.80 521.53, 298.34 512.63 C 301.89 503.73, 304.04 498.16, 308.98 486.90 C 313.92 475.65, 317.47 468.72, 323.04 456.37 C 328.61 444.03, 331.74 436.96, 336.81 425.18 C 341.88 413.40, 344.42 407.26, 348.40 397.48 C 352.38 387.69, 354.03 383.10, 356.70 376.25 C 359.36 369.39, 360.40 367.13, 361.71 363.19 C 363.02 359.25, 363.43 358.05, 363.25 356.55 C 363.06 355.06, 361.83 354.65, 360.78 355.72" style="stroke: black; fill: black;"/><path d="M 301.76,424.80 C 302.53 425.34, 302.78 425.60, 304.71 425.41 C 306.65 425.21, 307.87 424.68, 311.43 423.81 C 314.99 422.94, 317.15 422.26, 322.52 421.04 C 327.89 419.82, 331.39 419.12, 338.29 417.70 C 345.18 416.28, 350.12 415.12, 357.00 413.93 C 363.88 412.73, 367.30 412.37, 372.70 411.71 C 378.09 411.06, 381.75 411.38, 383.97 410.65 C 386.19 409.92, 386.12 408.48, 383.79 408.06 C 381.47 407.64, 377.83 408.06, 372.36 408.57 C 366.89 409.09, 363.39 409.50, 356.44 410.64 C 349.50 411.77, 344.56 413.00, 337.62 414.23 C 330.68 415.45, 327.24 416.03, 321.75 416.75 C 316.27 417.46, 313.95 417.18, 310.20 417.80 C 306.45 418.43, 304.88 418.89, 303.01 419.87 C 301.14 420.84, 301.10 421.69, 300.85 422.67 C 300.60 423.66, 300.99 424.25, 301.76 424.80" style="stroke: black; fill: black;"/><path d="M 472.80,320.79 C 471.58 321.73, 470.96 322.89, 469.03 326.68 C 467.09 330.47, 466.23 332.99, 463.15 339.75 C 460.06 346.51, 458.00 350.89, 453.61 360.48 C 449.21 370.06, 446.50 376.19, 441.16 387.66 C 435.82 399.14, 432.49 405.81, 426.91 417.83 C 421.32 429.85, 418.29 436.56, 413.26 447.76 C 408.22 458.97, 405.78 464.77, 401.73 473.87 C 397.68 482.98, 395.65 487.05, 393.00 493.29 C 390.35 499.52, 388.90 502.15, 388.47 505.04 C 388.04 507.92, 389.11 508.63, 390.83 507.71 C 392.54 506.80, 393.70 504.80, 397.04 500.46 C 400.39 496.11, 402.43 492.50, 407.55 485.98 C 412.66 479.46, 416.19 475.01, 422.62 467.85 C 429.04 460.70, 432.96 456.25, 439.68 450.22 C 446.39 444.19, 450.09 441.40, 456.20 437.70 C 462.31 433.99, 465.49 432.87, 470.23 431.71 C 474.97 430.55, 476.82 430.75, 479.91 431.90 C 482.99 433.05, 484.05 434.37, 485.66 437.45 C 487.28 440.53, 487.99 442.56, 487.99 447.29 C 488.00 452.02, 487.45 455.13, 485.70 461.11 C 483.95 467.08, 482.16 471.05, 479.23 477.16 C 476.31 483.26, 474.08 486.60, 471.08 491.63 C 468.08 496.66, 466.23 498.90, 464.22 502.30 C 462.20 505.71, 461.62 506.78, 461.00 508.66 C 460.39 510.54, 460.89 511.01, 461.15 511.69 C 461.41 512.37, 461.72 512.36, 462.30 512.07 C 462.89 511.78, 462.93 511.75, 464.06 510.24 C 465.20 508.73, 465.94 507.91, 467.97 504.54 C 469.99 501.18, 471.34 498.61, 474.21 493.42 C 477.07 488.24, 479.32 484.88, 482.30 478.62 C 485.28 472.37, 487.20 468.40, 489.11 462.13 C 491.03 455.86, 491.88 452.62, 491.90 447.29 C 491.92 441.97, 491.35 439.27, 489.19 435.51 C 487.04 431.74, 485.07 429.81, 481.13 428.46 C 477.18 427.11, 474.73 427.36, 469.47 428.77 C 464.22 430.17, 461.13 431.56, 454.85 435.50 C 448.57 439.43, 444.89 442.31, 438.07 448.44 C 431.25 454.56, 427.33 459.02, 420.73 466.13 C 414.13 473.24, 410.40 477.55, 405.05 483.96 C 399.71 490.37, 397.19 493.74, 393.99 498.18 C 390.79 502.62, 389.54 504.60, 389.07 506.17 C 388.60 507.75, 390.39 508.45, 391.65 506.06 C 392.91 503.68, 393.01 500.52, 395.37 494.24 C 397.74 487.95, 399.61 483.80, 403.49 474.64 C 407.38 465.48, 409.82 459.67, 414.80 448.45 C 419.79 437.24, 422.82 430.54, 428.42 418.54 C 434.03 406.54, 437.38 399.87, 442.84 388.46 C 448.29 377.04, 451.08 370.94, 455.69 361.46 C 460.30 351.99, 462.54 347.69, 465.90 341.08 C 469.26 334.47, 470.66 332.22, 472.50 328.41 C 474.34 324.59, 475.05 323.52, 475.11 321.99 C 475.17 320.47, 474.02 319.85, 472.80 320.79" style="stroke: black; fill: black;"/><path d="M 597.64,444.40 C 597.26 443.13, 596.32 441.95, 594.28 440.70 C 592.23 439.45, 590.74 438.62, 587.41 438.15 C 584.08 437.67, 581.82 437.29, 577.63 438.32 C 573.43 439.35, 571.32 440.50, 566.45 443.29 C 561.57 446.08, 558.53 447.84, 553.25 452.27 C 547.96 456.71, 544.95 459.84, 540.03 465.46 C 535.10 471.09, 532.46 474.45, 528.63 480.40 C 524.80 486.35, 522.87 489.80, 520.88 495.19 C 518.88 500.59, 518.29 503.18, 518.65 507.36 C 519.01 511.55, 519.92 514.04, 522.68 516.12 C 525.43 518.20, 527.92 518.34, 532.41 517.76 C 536.91 517.18, 539.49 516.20, 545.15 513.24 C 550.80 510.28, 554.19 508.09, 560.69 502.96 C 567.18 497.82, 571.03 494.01, 577.64 487.57 C 584.24 481.14, 587.80 477.13, 593.71 470.78 C 599.63 464.44, 602.92 460.76, 607.22 455.86 C 611.52 450.96, 614.05 448.64, 615.23 446.30 C 616.41 443.96, 614.78 442.98, 613.11 444.18 C 611.45 445.37, 609.98 447.72, 606.90 452.26 C 603.82 456.80, 601.53 460.47, 597.72 466.89 C 593.92 473.30, 591.31 477.70, 587.88 484.34 C 584.44 490.98, 582.53 494.68, 580.53 500.09 C 578.54 505.50, 578.05 507.75, 577.91 511.39 C 577.78 515.02, 578.65 516.46, 579.85 518.25 C 581.04 520.04, 582.87 520.24, 583.90 520.34 C 584.93 520.45, 585.19 519.52, 584.98 518.77 C 584.77 518.03, 583.41 518.05, 582.84 516.62 C 582.28 515.18, 581.98 514.67, 582.17 511.59 C 582.37 508.52, 582.08 506.38, 583.80 501.24 C 585.52 496.09, 587.34 492.33, 590.78 485.86 C 594.21 479.38, 597.06 475.14, 600.98 468.87 C 604.89 462.60, 607.43 459.13, 610.33 454.50 C 613.24 449.87, 615.05 447.81, 615.51 445.73 C 615.96 443.64, 614.73 442.48, 612.60 444.10 C 610.47 445.72, 608.99 448.83, 604.84 453.82 C 600.69 458.82, 597.63 462.67, 591.84 469.05 C 586.04 475.44, 582.45 479.42, 575.87 485.74 C 569.28 492.07, 565.38 495.80, 558.92 500.67 C 552.46 505.54, 548.98 507.50, 543.57 510.09 C 538.16 512.68, 535.53 513.10, 531.86 513.61 C 528.20 514.11, 527.10 513.94, 525.25 512.63 C 523.39 511.32, 522.82 510.31, 522.58 507.05 C 522.35 503.79, 522.35 501.34, 524.07 496.34 C 525.80 491.34, 527.57 487.82, 531.22 482.05 C 534.87 476.28, 537.50 472.93, 542.33 467.50 C 547.17 462.07, 550.19 459.03, 555.40 454.91 C 560.60 450.78, 563.73 449.16, 568.36 446.88 C 573.00 444.60, 575.01 443.89, 578.57 443.51 C 582.13 443.13, 583.50 444.35, 586.16 444.98 C 588.81 445.60, 589.82 446.22, 591.83 446.64 C 593.85 447.06, 595.06 447.52, 596.22 447.07 C 597.38 446.62, 598.03 445.68, 597.64 444.40" style="stroke: black; fill: black;"/><path d="M 673.81,442.63 C 672.57 443.52, 671.85 444.84, 670.06 448.27 C 668.27 451.69, 667.51 454.36, 664.85 459.74 C 662.18 465.12, 660.21 469.00, 656.73 475.19 C 653.25 481.37, 650.83 485.25, 647.44 490.68 C 644.06 496.10, 641.69 498.83, 639.81 502.32 C 637.92 505.80, 637.52 507.14, 638.02 508.12 C 638.51 509.09, 639.73 509.28, 642.29 507.20 C 644.85 505.11, 646.41 502.42, 650.82 497.69 C 655.23 492.97, 658.15 489.41, 664.33 483.58 C 670.52 477.75, 674.52 474.17, 681.75 468.56 C 688.98 462.94, 693.38 459.89, 700.49 455.53 C 707.61 451.17, 711.45 449.11, 717.32 446.77 C 723.19 444.44, 726.28 443.98, 729.86 443.84 C 733.43 443.70, 734.11 444.27, 735.18 446.07 C 736.24 447.87, 736.07 449.13, 735.18 452.85 C 734.28 456.58, 733.22 459.51, 730.71 464.68 C 728.20 469.85, 725.98 473.27, 722.61 478.72 C 719.23 484.16, 716.85 487.46, 713.84 491.91 C 710.82 496.36, 709.29 497.99, 707.52 500.97 C 705.74 503.96, 705.15 505.45, 704.98 506.83 C 704.81 508.22, 705.50 508.63, 706.66 507.90 C 707.83 507.17, 708.74 505.95, 710.82 503.19 C 712.91 500.44, 714.10 498.61, 717.10 494.11 C 720.11 489.62, 722.40 486.26, 725.85 480.73 C 729.29 475.20, 731.64 471.87, 734.33 466.46 C 737.01 461.06, 738.48 458.21, 739.29 453.71 C 740.10 449.20, 740.28 446.61, 738.38 443.95 C 736.47 441.28, 734.21 440.35, 729.78 440.38 C 725.35 440.42, 722.35 441.52, 716.23 444.12 C 710.11 446.73, 706.38 448.91, 699.17 453.39 C 691.97 457.88, 687.59 460.96, 680.21 466.55 C 672.84 472.14, 668.72 475.66, 662.30 481.36 C 655.87 487.05, 652.74 490.47, 648.09 495.03 C 643.44 499.59, 640.91 501.49, 639.04 504.17 C 637.17 506.85, 637.88 508.34, 638.75 508.42 C 639.61 508.50, 640.99 507.74, 643.35 504.57 C 645.71 501.40, 647.24 498.09, 650.54 492.57 C 653.84 487.05, 656.27 483.16, 659.84 476.96 C 663.42 470.76, 665.55 466.92, 668.41 461.57 C 671.27 456.23, 672.58 453.79, 674.15 450.24 C 675.72 446.68, 676.33 445.34, 676.26 443.82 C 676.19 442.30, 675.05 441.74, 673.81 442.63" style="stroke: black; fill: black;"/><path d="M 839.84,447.36 C 839.61 446.20, 839.06 444.97, 837.15 443.93 C 835.25 442.89, 833.71 442.08, 830.32 442.14 C 826.93 442.20, 824.57 442.65, 820.22 444.22 C 815.87 445.80, 813.27 447.31, 808.57 450.02 C 803.88 452.72, 801.01 454.49, 796.75 457.74 C 792.49 460.99, 790.15 462.95, 787.26 466.26 C 784.38 469.57, 782.62 471.37, 782.31 474.28 C 782.00 477.19, 783.08 479.63, 785.72 480.80 C 788.36 481.97, 790.85 481.60, 795.51 480.15 C 800.16 478.70, 803.14 476.77, 808.99 473.54 C 814.84 470.30, 818.60 467.99, 824.77 463.98 C 830.94 459.97, 834.58 457.13, 839.84 453.48 C 845.10 449.84, 847.92 447.88, 851.06 445.76 C 854.20 443.64, 855.01 442.92, 855.55 442.90 C 856.09 442.88, 855.26 442.91, 853.74 445.66 C 852.22 448.40, 851.02 450.89, 847.94 456.63 C 844.87 462.37, 842.62 466.43, 838.37 474.35 C 834.13 482.27, 831.61 487.06, 826.70 496.24 C 821.80 505.42, 818.95 510.62, 813.86 520.26 C 808.78 529.91, 806.21 535.24, 801.27 544.47 C 796.32 553.71, 793.82 558.48, 789.14 566.42 C 784.47 574.37, 782.36 578.12, 777.90 584.21 C 773.43 590.31, 771.17 592.98, 766.82 596.92 C 762.47 600.86, 760.44 602.25, 756.14 603.93 C 751.83 605.60, 749.70 605.66, 745.29 605.30 C 740.89 604.94, 738.33 604.39, 734.11 602.13 C 729.89 599.87, 727.53 597.50, 724.20 594.01 C 720.87 590.53, 719.68 587.99, 717.44 584.71 C 715.20 581.43, 714.36 578.78, 712.99 577.60 C 711.63 576.42, 710.44 576.92, 710.61 578.80 C 710.78 580.67, 711.72 583.34, 713.83 586.98 C 715.93 590.62, 717.46 593.25, 721.15 596.98 C 724.85 600.71, 727.52 603.24, 732.30 605.63 C 737.08 608.02, 740.04 608.66, 745.05 608.92 C 750.07 609.19, 752.63 608.94, 757.36 606.95 C 762.10 604.96, 764.23 603.24, 768.72 598.97 C 773.21 594.70, 775.38 591.90, 779.82 585.60 C 784.27 579.30, 786.32 575.52, 790.96 567.48 C 795.59 559.44, 798.07 554.66, 803.00 545.40 C 807.93 536.14, 810.49 530.82, 815.62 521.19 C 820.74 511.57, 823.60 506.39, 828.64 497.29 C 833.67 488.19, 836.30 483.47, 840.79 475.70 C 845.28 467.92, 847.70 464.09, 851.09 458.41 C 854.48 452.73, 856.67 450.77, 857.72 447.30 C 858.77 443.84, 858.08 442.09, 856.33 441.08 C 854.59 440.08, 852.71 440.36, 849.01 442.28 C 845.31 444.19, 843.04 446.87, 837.83 450.65 C 832.62 454.43, 829.08 457.26, 822.95 461.16 C 816.82 465.06, 812.96 467.21, 807.19 470.14 C 801.42 473.08, 798.17 474.46, 794.11 475.83 C 790.05 477.20, 788.42 477.10, 786.88 476.99 C 785.34 476.89, 785.61 476.81, 786.40 475.30 C 787.20 473.80, 788.24 472.28, 790.84 469.46 C 793.44 466.65, 795.43 464.30, 799.42 461.22 C 803.41 458.13, 806.30 456.38, 810.78 454.03 C 815.26 451.68, 817.91 450.42, 821.83 449.47 C 825.75 448.52, 827.68 449.27, 830.38 449.28 C 833.08 449.29, 833.76 449.42, 835.34 449.51 C 836.93 449.59, 837.43 450.15, 838.32 449.72 C 839.22 449.29, 840.08 448.52, 839.84 447.36" style="stroke: black; fill: black;"/><path d="M 983.25,354.11 C 984.22 354.01, 983.83 352.85, 983.54 352.45 C 983.26 352.05, 982.05 352.41, 981.80 352.13 C 981.56 351.84, 982.77 351.41, 982.31 351.03 C 981.85 350.65, 980.23 349.82, 979.50 350.21 C 978.78 350.60, 977.95 352.19, 978.69 352.97 C 979.44 353.75, 982.28 354.22, 983.25 354.11" style="stroke: black; fill: black;"/><path d="M 998.02,364.75 C 997.12 366.58, 997.51 369.24, 996.41 374.33 C 995.30 379.42, 994.37 382.74, 992.49 390.20 C 990.62 397.66, 989.60 402.84, 987.04 411.62 C 984.47 420.41, 982.80 425.25, 979.67 434.10 C 976.54 442.96, 974.78 447.61, 971.40 455.90 C 968.01 464.20, 966.33 468.26, 962.74 475.58 C 959.16 482.90, 957.33 486.60, 953.48 492.50 C 949.63 498.39, 947.51 501.09, 943.49 505.04 C 939.47 508.99, 937.40 510.21, 933.39 512.24 C 929.37 514.27, 927.46 514.82, 923.41 515.19 C 919.36 515.56, 917.23 515.25, 913.14 514.10 C 909.06 512.95, 906.56 511.62, 902.98 509.44 C 899.40 507.25, 897.73 505.20, 895.26 503.19 C 892.80 501.18, 892.07 500.66, 890.65 499.38 C 889.23 498.09, 889.02 497.13, 888.17 496.77 C 887.31 496.42, 886.58 496.54, 886.37 497.60 C 886.15 498.65, 886.06 500.07, 887.11 502.06 C 888.16 504.04, 888.92 505.21, 891.62 507.53 C 894.31 509.85, 896.50 511.52, 900.59 513.67 C 904.68 515.82, 907.42 517.20, 912.07 518.28 C 916.73 519.37, 919.26 519.67, 923.85 519.08 C 928.43 518.49, 930.65 517.71, 935.01 515.33 C 939.37 512.95, 941.51 511.46, 945.65 507.18 C 949.79 502.90, 951.86 500.04, 955.70 493.92 C 959.55 487.81, 961.32 484.04, 964.87 476.61 C 968.43 469.17, 970.08 465.09, 973.47 456.75 C 976.86 448.40, 978.63 443.76, 981.84 434.88 C 985.05 426.00, 986.80 421.15, 989.52 412.37 C 992.23 403.59, 993.37 398.43, 995.41 390.97 C 997.45 383.50, 998.63 380.21, 999.73 375.04 C 1000.82 369.88, 1001.22 367.21, 1000.87 365.15 C 1000.53 363.09, 998.91 362.91, 998.02 364.75" style="stroke: black; fill: black;"/><path d="M 1034.92,417.73 C 1033.77 417.83, 1032.54 417.81, 1031.03 419.80 C 1029.51 421.79, 1029.25 423.63, 1027.36 427.67 C 1025.47 431.71, 1024.19 434.61, 1021.58 439.99 C 1018.98 445.37, 1017.45 448.93, 1014.34 454.57 C 1011.22 460.22, 1008.87 463.64, 1006.02 468.23 C 1003.17 472.82, 1001.82 474.57, 1000.08 477.53 C 998.35 480.49, 997.88 481.50, 997.35 483.05 C 996.82 484.59, 997.24 484.73, 997.43 485.27 C 997.63 485.80, 997.80 485.83, 998.32 485.73 C 998.84 485.63, 998.88 485.90, 1000.05 484.76 C 1001.23 483.62, 1002.32 482.95, 1004.18 480.04 C 1006.05 477.13, 1006.69 474.95, 1009.38 470.23 C 1012.07 465.50, 1014.43 462.07, 1017.63 456.41 C 1020.82 450.76, 1022.45 447.21, 1025.36 441.95 C 1028.27 436.70, 1030.04 433.98, 1032.18 430.13 C 1034.31 426.29, 1035.11 424.89, 1036.03 422.73 C 1036.95 420.56, 1036.99 420.29, 1036.77 419.29 C 1036.55 418.29, 1036.06 417.63, 1034.92 417.73" style="stroke: black; fill: black;"/><path d="M 1062.39,369.61 C 1062.88 368.60, 1062.55 367.71, 1062.02 367.31 C 1061.48 366.90, 1060.61 367.20, 1059.73 367.59 C 1058.85 367.99, 1058.16 368.44, 1057.63 369.27 C 1057.10 370.10, 1056.69 371.12, 1057.08 371.74 C 1057.47 372.36, 1058.50 372.79, 1059.56 372.37 C 1060.62 371.94, 1061.90 370.62, 1062.39 369.61" style="stroke: black; fill: black;"/><path d="M 1082.36,436.76 C 1083.22 437.00, 1083.50 436.03, 1083.37 435.41 C 1083.25 434.79, 1082.74 433.49, 1081.74 433.67 C 1080.73 433.86, 1079.56 433.92, 1078.34 436.35 C 1077.12 438.78, 1077.32 441.58, 1075.64 445.82 C 1073.96 450.06, 1072.36 453.03, 1069.94 457.53 C 1067.52 462.03, 1065.73 464.55, 1063.53 468.32 C 1061.34 472.09, 1059.79 473.81, 1058.96 476.36 C 1058.14 478.90, 1058.55 480.32, 1059.40 481.07 C 1060.26 481.82, 1061.34 481.96, 1063.25 480.10 C 1065.16 478.25, 1065.78 476.00, 1068.95 471.79 C 1072.13 467.59, 1074.45 464.47, 1079.14 459.09 C 1083.82 453.72, 1086.77 450.12, 1092.39 444.91 C 1098.01 439.70, 1101.50 437.00, 1107.25 433.05 C 1113.00 429.11, 1116.24 427.35, 1121.15 425.17 C 1126.05 422.98, 1128.47 422.42, 1131.78 422.12 C 1135.08 421.82, 1136.08 422.30, 1137.66 423.65 C 1139.23 424.99, 1139.38 425.72, 1139.63 428.84 C 1139.88 431.97, 1139.65 434.51, 1138.91 439.26 C 1138.17 444.01, 1137.42 447.10, 1135.92 452.58 C 1134.42 458.07, 1133.11 461.35, 1131.39 466.67 C 1129.67 472.00, 1128.63 474.95, 1127.31 479.20 C 1125.99 483.44, 1124.83 485.98, 1124.81 487.90 C 1124.80 489.81, 1126.01 490.27, 1127.24 488.78 C 1128.47 487.30, 1129.38 484.63, 1130.97 480.46 C 1132.56 476.28, 1133.39 473.26, 1135.17 467.91 C 1136.95 462.56, 1138.22 459.28, 1139.86 453.70 C 1141.50 448.12, 1142.45 445.09, 1143.36 440.01 C 1144.26 434.92, 1144.97 432.23, 1144.39 428.28 C 1143.80 424.32, 1143.01 422.26, 1140.41 420.24 C 1137.82 418.21, 1135.54 417.77, 1131.41 418.15 C 1127.28 418.54, 1124.92 419.66, 1119.75 422.15 C 1114.58 424.64, 1111.44 426.50, 1105.56 430.61 C 1099.68 434.71, 1096.17 437.46, 1090.35 442.67 C 1084.53 447.88, 1081.47 451.42, 1076.47 456.66 C 1071.46 461.89, 1068.88 464.80, 1065.34 468.86 C 1061.81 472.93, 1059.88 474.51, 1058.78 476.99 C 1057.67 479.46, 1058.80 480.86, 1059.81 481.25 C 1060.83 481.64, 1062.23 481.02, 1063.85 478.94 C 1065.48 476.85, 1065.84 474.61, 1067.93 470.81 C 1070.02 467.02, 1071.70 464.47, 1074.32 459.98 C 1076.94 455.49, 1078.77 452.51, 1081.04 448.36 C 1083.31 444.21, 1084.80 442.12, 1085.67 439.22 C 1086.54 436.32, 1086.30 435.38, 1085.39 433.86 C 1084.47 432.34, 1082.35 431.56, 1081.09 431.63 C 1079.82 431.70, 1078.81 433.19, 1079.06 434.22 C 1079.31 435.24, 1081.49 436.52, 1082.36 436.76" style="stroke: black; fill: black;"/><path d="M 1191.52,414.41 C 1191.01 415.64, 1191.08 416.76, 1191.57 419.66 C 1192.06 422.57, 1193.01 424.65, 1193.96 428.94 C 1194.90 433.23, 1195.41 435.92, 1196.30 441.13 C 1197.19 446.33, 1197.64 449.49, 1198.40 454.97 C 1199.15 460.44, 1199.15 463.66, 1200.08 468.52 C 1201.00 473.37, 1201.13 475.75, 1203.03 479.23 C 1204.93 482.70, 1206.30 484.59, 1209.56 485.90 C 1212.82 487.20, 1215.23 487.18, 1219.33 485.74 C 1223.44 484.31, 1225.54 482.45, 1230.08 478.71 C 1234.62 474.97, 1237.12 472.25, 1242.02 467.06 C 1246.93 461.86, 1249.75 458.42, 1254.62 452.73 C 1259.50 447.04, 1262.10 443.66, 1266.42 438.61 C 1270.74 433.56, 1273.18 431.13, 1276.23 427.47 C 1279.28 423.81, 1280.48 422.28, 1281.68 420.32 C 1282.88 418.35, 1282.27 418.31, 1282.23 417.64 C 1282.19 416.98, 1282.15 416.92, 1281.47 417.01 C 1280.80 417.09, 1280.51 416.46, 1278.86 418.06 C 1277.21 419.66, 1276.20 421.31, 1273.22 425.01 C 1270.25 428.71, 1268.16 431.43, 1263.97 436.57 C 1259.79 441.72, 1257.18 445.10, 1252.31 450.73 C 1247.44 456.36, 1244.56 459.75, 1239.63 464.74 C 1234.69 469.73, 1232.01 472.31, 1227.65 475.66 C 1223.29 479.02, 1221.10 480.33, 1217.83 481.50 C 1214.57 482.66, 1213.49 482.37, 1211.34 481.49 C 1209.19 480.60, 1208.50 479.83, 1207.08 477.07 C 1205.66 474.31, 1205.16 472.23, 1204.24 467.70 C 1203.32 463.17, 1203.16 459.87, 1202.46 454.42 C 1201.76 448.98, 1201.40 445.76, 1200.74 440.47 C 1200.08 435.18, 1199.82 432.45, 1199.16 427.98 C 1198.50 423.52, 1198.43 421.04, 1197.42 418.15 C 1196.41 415.26, 1195.29 414.28, 1194.11 413.53 C 1192.93 412.79, 1192.03 413.19, 1191.52 414.41" style="stroke: black; fill: black;"/><path d="M 1263.66,458.12 C 1261.59 459.04, 1259.48 461.00, 1255.12 464.94 C 1250.76 468.87, 1247.96 471.63, 1241.85 477.79 C 1235.74 483.96, 1231.76 488.13, 1224.56 495.75 C 1217.36 503.38, 1213.24 507.68, 1205.86 515.93 C 1198.47 524.17, 1194.43 528.90, 1187.62 536.99 C 1180.81 545.09, 1177.13 549.54, 1171.80 556.41 C 1166.46 563.27, 1164.26 566.56, 1160.93 571.32 C 1157.60 576.08, 1156.42 577.54, 1155.15 580.22 C 1153.89 582.91, 1154.45 583.75, 1154.59 584.75 C 1154.73 585.75, 1155.14 585.79, 1155.86 585.21 C 1156.57 584.63, 1156.66 584.29, 1158.16 581.84 C 1159.65 579.38, 1160.23 577.73, 1163.32 572.92 C 1166.41 568.11, 1168.43 564.71, 1173.60 557.78 C 1178.76 550.85, 1182.41 546.38, 1189.15 538.27 C 1195.90 530.17, 1199.93 525.46, 1207.34 517.26 C 1214.75 509.07, 1218.92 504.83, 1226.19 497.31 C 1233.47 489.80, 1237.54 485.71, 1243.73 479.69 C 1249.92 473.67, 1252.81 471.07, 1257.15 467.20 C 1261.50 463.33, 1264.16 462.16, 1265.46 460.34 C 1266.76 458.52, 1265.72 457.20, 1263.66 458.12" style="stroke: black; fill: black;"/><path d="M 1357.17,407.77 C 1356.06 408.63, 1355.86 409.58, 1353.90 413.07 C 1351.95 416.57, 1350.75 419.29, 1347.40 425.24 C 1344.05 431.19, 1341.63 435.39, 1337.16 442.81 C 1332.70 450.23, 1329.71 455.01, 1325.07 462.36 C 1320.43 469.70, 1317.70 473.73, 1313.95 479.54 C 1310.20 485.35, 1308.32 487.82, 1306.32 491.43 C 1304.32 495.03, 1304.12 496.18, 1303.94 497.56 C 1303.76 498.94, 1304.41 499.23, 1305.42 498.32 C 1306.42 497.42, 1306.77 496.45, 1308.97 493.01 C 1311.17 489.57, 1312.75 486.96, 1316.42 481.11 C 1320.10 475.27, 1322.70 471.15, 1327.35 463.80 C 1332.00 456.44, 1335.05 451.70, 1339.67 444.35 C 1344.29 437.00, 1346.85 432.90, 1350.45 427.03 C 1354.04 421.17, 1355.83 418.69, 1357.64 415.04 C 1359.44 411.39, 1359.57 410.24, 1359.48 408.79 C 1359.38 407.34, 1358.28 406.91, 1357.17 407.77" style="stroke: black; fill: black;"/><path d="M 1387.48,354.39 C 1386.34 354.33, 1385.12 354.49, 1384.53 355.39 C 1383.95 356.30, 1383.75 357.83, 1384.57 358.92 C 1385.39 360.00, 1387.27 360.88, 1388.63 360.81 C 1389.98 360.75, 1391.03 359.62, 1391.35 358.60 C 1391.68 357.57, 1391.02 356.53, 1390.25 355.69 C 1389.47 354.85, 1388.63 354.45, 1387.48 354.39" style="stroke: black; fill: black;"/></svg>